<svg xmlns="http://www.w3.org/2000/svg" viewBox="0 0 1024 1024" width="1024" height="1024">
  <defs>
    <linearGradient id="bg" x1="130" y1="90" x2="900" y2="950" gradientUnits="userSpaceOnUse">
      <stop offset="0" stop-color="#ff9a5c"/><stop offset="0.38" stop-color="#ff5a15"/><stop offset="0.82" stop-color="#d4460b"/><stop offset="1" stop-color="#8f2a04"/>
    </linearGradient>
    <radialGradient id="light" cx="26%" cy="14%" r="70%">
      <stop offset="0" stop-color="#fff" stop-opacity="0.55"/><stop offset="0.5" stop-color="#fff" stop-opacity="0.08"/><stop offset="1" stop-color="#fff" stop-opacity="0"/>
    </radialGradient>
    <radialGradient id="vig" cx="50%" cy="46%" r="72%">
      <stop offset="0.62" stop-color="#3a0d00" stop-opacity="0"/><stop offset="1" stop-color="#3a0d00" stop-opacity="0.42"/>
    </radialGradient>
    <linearGradient id="edge" x1="0" y1="0" x2="0" y2="1">
      <stop offset="0" stop-color="#fff" stop-opacity="0.75"/><stop offset="0.5" stop-color="#fff" stop-opacity="0.08"/><stop offset="1" stop-color="#ffb890" stop-opacity="0.35"/>
    </linearGradient>
    <linearGradient id="sheen" x1="0" y1="0" x2="0" y2="1">
      <stop offset="0" stop-color="#fff" stop-opacity="0.55"/><stop offset="1" stop-color="#fff" stop-opacity="0"/>
    </linearGradient>
    <linearGradient id="zfill" x1="0" y1="0" x2="0" y2="1">
      <stop offset="0" stop-color="#ffffff"/><stop offset="1" stop-color="#ffd8c0"/>
    </linearGradient>
    <linearGradient id="cell" x1="0" y1="0" x2="1" y2="1">
      <stop offset="0" stop-color="#fff" stop-opacity="0.30"/><stop offset="1" stop-color="#fff" stop-opacity="0.06"/>
    </linearGradient>
    <filter id="shadow" x="-20%" y="-20%" width="140%" height="150%">
      <feDropShadow dx="0" dy="24" stdDeviation="28" flood-color="#4a1500" flood-opacity="0.45"/>
    </filter>
    <filter id="zshadow" x="-25%" y="-25%" width="150%" height="160%">
      <feDropShadow dx="0" dy="12" stdDeviation="12" flood-color="#6a1f00" flood-opacity="0.5"/>
    </filter>
    <filter id="soft"><feGaussianBlur stdDeviation="14"/></filter>
    <clipPath id="sq"><rect x="100" y="100" width="824" height="824" rx="188"/></clipPath>
  </defs>
  <rect x="100" y="100" width="824" height="824" rx="188" fill="url(#bg)" filter="url(#shadow)"/>
  <g clip-path="url(#sq)">
    <rect x="100" y="100" width="824" height="824" fill="url(#light)"/>
    <rect x="100" y="100" width="824" height="824" fill="url(#vig)"/>
    <ellipse cx="640" cy="880" rx="330" ry="120" fill="#ff8a3a" fill-opacity="0.35" filter="url(#soft)"/>
    <!-- the rings closing around the cell -->
    <rect x="182" y="182" width="660" height="660" rx="150" fill="none" stroke="#fff" stroke-opacity="0.16" stroke-width="10"/>
    <rect x="222" y="222" width="580" height="580" rx="132" fill="none" stroke="#fff" stroke-opacity="0.26" stroke-width="12"/>
    <rect x="262" y="262" width="500" height="500" rx="114" fill="none" stroke="#fff" stroke-opacity="0.40" stroke-width="14"/>
  </g>
  <!-- the sealed cell: glass -->
  <rect x="312" y="312" width="400" height="400" rx="92" fill="url(#cell)" stroke="#fff" stroke-opacity="0.55" stroke-width="10"/>
  <path d="M330,420 Q330,330 420,330 L604,330 Q694,330 694,420 Q512,470 330,420 Z" fill="url(#sheen)" fill-opacity="0.55"/>
  <!-- the Zyvor Z -->
  <path d="M398.6,423.4 L625.4,423.4 L398.6,616.6 L625.4,616.6" fill="none" stroke="url(#zfill)" stroke-width="63.8" stroke-linecap="round" stroke-linejoin="round" filter="url(#zshadow)"/>
  <path d="M398.6,415.4 L625.4,415.4 L398.6,608.6 L625.4,608.6" fill="none" stroke="#fff" stroke-opacity="0.0" stroke-width="2"/>
  <!-- sparks -->
  <path d="M786,216 Q794.28,253.72 832,262 Q794.28,270.28 786,308 Q777.72,270.28 740,262 Q777.72,253.72 786,216 Z" fill="#fff" fill-opacity="0.95"/>
  <path d="M262,748 Q266.68,769.32 288,774 Q266.68,778.68 262,800 Q257.32,778.68 236,774 Q257.32,769.32 262,748 Z" fill="#fff" fill-opacity="0.7"/>
  <path d="M742,726 Q744.88,739.12 758,742 Q744.88,744.88 742,758 Q739.12,744.88 726,742 Q739.12,739.12 742,726 Z" fill="#fff" fill-opacity="0.55"/>
  <rect x="103" y="103" width="818" height="818" rx="185" fill="none" stroke="url(#edge)" stroke-width="6"/>
</svg>
